<?xml version="1.0" standalone="no"?>
<!DOCTYPE svg PUBLIC "-//W3C//DTD SVG 20010904//EN"
 "http://www.w3.org/TR/2001/REC-SVG-20010904/DTD/svg10.dtd">
<svg version="1.0" xmlns="http://www.w3.org/2000/svg"
 width="900.000000pt" height="420.000000pt" viewBox="0 0 900.000000 420.000000"
 preserveAspectRatio="xMidYMid meet">

<g transform="translate(0.000000,420.000000) scale(0.100000,-0.100000)"
fill="#000000" stroke="none">
<path d="M4315 3870 c-22 -5 -78 -16 -125 -24 -47 -9 -121 -27 -165 -41 -93
-30 -303 -131 -358 -172 -235 -174 -382 -340 -516 -586 -24 -43 -41 -80 -39
-82 2 -3 44 -16 94 -30 49 -14 113 -37 142 -50 29 -14 55 -25 58 -25 2 0 36
-21 74 -46 128 -84 224 -217 248 -344 6 -30 12 -160 14 -287 2 -128 6 -233 11
-233 4 0 7 95 7 211 0 167 -4 235 -20 327 -51 288 -164 528 -320 677 -34 33
-69 67 -78 75 -29 27 8 23 81 -10 79 -36 206 -128 279 -201 81 -82 182 -226
237 -337 29 -59 59 -118 66 -132 7 -14 27 -72 45 -130 17 -58 34 -109 36 -115
6 -13 -4 83 -11 115 -3 14 -10 50 -16 80 -40 210 -126 468 -212 630 -65 122
-131 217 -221 317 -21 24 -36 46 -33 49 5 6 108 -62 207 -138 74 -56 274 -257
337 -338 96 -124 220 -338 248 -428 4 -13 9 -21 12 -18 11 10 -95 345 -153
485 -94 223 -206 407 -358 586 -21 25 -36 49 -32 52 10 10 149 -61 241 -123
131 -88 261 -223 322 -335 14 -27 28 -48 30 -46 4 5 -12 80 -37 167 -26 93
-136 317 -189 387 -22 28 -37 54 -34 57 11 11 60 6 99 -10 62 -26 186 -135
200 -176 9 -29 27 -20 60 30 57 88 171 162 249 162 26 0 35 -23 14 -35 -30
-19 -179 -291 -179 -327 0 -8 -4 -18 -9 -24 -12 -13 -65 -214 -58 -220 3 -3
13 9 23 28 54 104 202 260 325 343 89 60 226 128 239 120 6 -4 -3 -22 -21 -43
-70 -83 -134 -167 -176 -230 -62 -94 -183 -338 -226 -457 -59 -164 -124 -382
-115 -390 2 -3 19 31 37 74 118 285 400 613 692 804 32 21 63 37 69 35 5 -1
-18 -32 -51 -68 -62 -66 -157 -201 -180 -255 -7 -17 -18 -37 -24 -45 -18 -23
-102 -230 -115 -280 -6 -25 -15 -54 -20 -65 -22 -47 -101 -394 -99 -439 0 -11
18 30 39 92 78 229 197 437 323 563 118 120 198 181 301 228 110 52 112 43 12
-55 -117 -115 -227 -301 -271 -459 -9 -33 -20 -69 -25 -80 -30 -68 -44 -189
-48 -432 -2 -139 0 -253 5 -253 4 0 9 106 10 236 1 130 7 262 13 293 25 122
122 252 252 337 36 24 69 44 72 44 3 0 30 12 59 26 28 14 92 36 141 49 49 13
90 26 92 28 10 9 -137 259 -193 328 -159 196 -302 317 -486 413 -164 85 -278
124 -447 153 -98 17 -396 25 -455 13z"/>
<path d="M4912 2300 c0 -14 2 -19 5 -12 2 6 2 18 0 25 -3 6 -5 1 -5 -13z"/>
<path d="M5440 1862 c-48 -13 -87 -41 -115 -83 -24 -34 -30 -54 -33 -108 -3
-78 18 -124 81 -175 36 -29 45 -31 116 -31 58 0 84 5 105 18 35 23 27 33 -11
14 -110 -56 -235 -6 -269 109 -14 49 -14 59 0 107 34 117 150 169 264 117 48
-22 57 -13 12 13 -33 20 -111 29 -150 19z"/>
<path d="M3090 1664 c0 -108 2 -195 4 -193 3 3 6 78 7 167 2 186 8 196 60 105
18 -32 35 -60 38 -63 3 -3 17 -27 31 -54 14 -27 30 -48 35 -48 8 0 49 64 108
172 44 80 51 64 57 -120 l6 -165 2 198 c2 155 -1 198 -10 195 -12 -4 -100
-145 -134 -215 -22 -44 -38 -41 -64 10 -44 85 -115 200 -128 205 -9 3 -12 -40
-12 -194z"/>
<path d="M3850 1665 c0 -123 4 -195 10 -195 6 0 10 28 10 65 l0 65 43 0 c41
-1 43 -2 82 -65 36 -59 55 -79 55 -57 0 5 -16 31 -35 58 -19 27 -35 54 -35 59
0 6 14 19 31 29 54 32 73 108 44 170 -23 47 -62 66 -139 66 l-66 0 0 -195z
m151 162 c47 -32 64 -84 43 -136 -20 -49 -63 -74 -124 -69 l-45 3 -3 99 c-1
55 0 106 2 113 9 22 88 16 127 -10z"/>
<path d="M4130 1665 c0 -123 4 -195 10 -195 6 0 10 28 10 65 l0 65 40 0 c38 0
42 -3 78 -57 52 -80 50 -78 57 -71 4 3 -9 30 -29 60 -43 63 -44 75 -11 90 75
34 83 155 14 213 -26 21 -40 25 -100 25 l-69 0 0 -195z m133 171 c71 -29 90
-120 38 -178 -26 -29 -34 -32 -87 -33 l-59 0 -3 99 c-1 55 0 106 2 113 7 17
68 17 109 -1z"/>
<path d="M4742 1664 c1 -155 3 -178 7 -104 8 130 22 149 62 83 53 -90 111
-173 120 -173 5 0 -3 19 -18 43 -73 115 -113 182 -113 190 0 5 23 41 51 79 28
38 49 71 46 74 -5 5 -56 -56 -110 -130 -24 -33 -39 -10 -36 60 1 35 -1 67 -4
71 -4 3 -6 -83 -5 -193z"/>
<path d="M5022 1663 l3 -198 93 -3 c59 -2 92 1 92 8 0 6 -33 10 -84 10 -97 0
-93 -5 -88 101 l4 69 84 0 c49 0 84 4 84 10 0 6 -35 10 -85 10 l-85 0 0 90 0
89 88 4 87 3 -98 2 -97 2 2 -197z"/>
<path d="M5700 1665 c0 -119 4 -194 9 -190 5 3 9 33 9 68 -1 107 -9 98 90 95
l87 -3 6 -90 c3 -56 5 -13 5 115 0 113 -2 162 -3 110 -3 -59 -8 -97 -16 -102
-7 -4 -47 -8 -89 -8 l-78 0 0 94 c0 53 -4 98 -10 101 -7 4 -10 -62 -10 -190z"/>
<path d="M3636 1839 c-44 -128 -68 -198 -75 -214 -17 -35 -51 -135 -51 -147 0
-22 14 3 40 70 l25 67 55 3 c85 5 93 0 114 -67 21 -65 32 -88 40 -80 6 5 -122
360 -135 373 -5 6 -10 4 -13 -5z m46 -116 c25 -77 20 -93 -29 -93 -53 0 -66
11 -57 46 13 53 44 116 55 112 6 -2 20 -31 31 -65z"/>
<path d="M4522 1834 c-5 -10 -26 -64 -45 -119 -20 -55 -47 -131 -61 -170 -30
-81 -29 -75 -16 -75 6 0 10 5 10 11 0 11 20 60 43 109 11 22 20 25 80 28 l68
3 19 -43 c11 -24 20 -50 20 -59 0 -8 7 -24 15 -35 15 -18 16 -17 9 16 -4 19
-10 41 -15 50 -5 8 -30 74 -55 145 -58 162 -59 164 -72 139z m43 -104 c15 -39
24 -77 21 -85 -8 -22 -104 -21 -113 1 -3 8 -1 20 6 27 6 6 11 16 11 23 0 15
38 104 44 104 2 0 16 -32 31 -70z"/>
<path d="M3747 1359 c-4 -9 -7 -49 -5 -90 3 -71 4 -74 28 -76 14 -1 17 1 8 3
-14 4 -18 20 -20 92 -2 52 -6 81 -11 71z"/>
<path d="M5249 1290 l-4 -85 -705 -5 -705 -5 712 -3 711 -2 7 64 c4 37 3 77
-3 93 -8 24 -11 15 -13 -57z"/>
<path d="M4542 850 l3 -115 145 0 145 0 3 115 c2 76 -1 111 -7 105 -6 -6 -11
-51 -13 -100 l-3 -90 -30 0 c-28 0 -30 3 -33 43 -3 34 -7 43 -20 40 -9 -2 -16
-11 -14 -20 3 -21 -16 -34 -30 -20 -8 8 -7 16 3 28 12 14 11 16 -6 13 -30 -6
-27 -51 3 -59 48 -11 20 -25 -50 -25 l-73 0 -3 90 c-2 49 -7 94 -13 100 -6 6
-9 -29 -7 -105z"/>
<path d="M4917 953 c-11 -11 -8 -223 3 -223 6 0 10 45 10 115 0 63 -1 115 -3
115 -2 0 -7 -3 -10 -7z"/>
<path d="M5652 847 l3 -112 98 -3 c76 -2 99 0 103 11 7 18 -53 107 -72 107
-19 0 -18 -6 12 -46 31 -41 23 -47 -57 -42 l-54 3 -3 92 c-2 70 -6 92 -18 97
-13 5 -14 -10 -12 -107z"/>
<path d="M3340 935 c0 -8 5 -15 10 -15 6 0 10 7 10 15 0 8 -4 15 -10 15 -5 0
-10 -7 -10 -15z"/>
<path d="M3520 840 l0 -110 172 2 c120 2 173 6 175 15 3 7 -8 13 -24 15 -20 2
-29 9 -31 26 -3 19 1 22 27 22 21 0 31 5 31 15 0 10 -10 15 -32 15 -44 0 -56
-9 -60 -45 -3 -26 -7 -30 -33 -30 -25 0 -30 4 -33 28 -4 36 -17 34 -31 -3 -10
-31 -11 -31 -73 -28 l-63 3 -3 93 c-4 131 -22 116 -22 -18z"/>
<path d="M4665 930 c-3 -5 -1 -10 4 -10 6 0 11 5 11 10 0 6 -2 10 -4 10 -3 0
-8 -4 -11 -10z"/>
<path d="M4720 930 c0 -5 5 -10 11 -10 5 0 7 5 4 10 -3 6 -8 10 -11 10 -2 0
-4 -4 -4 -10z"/>
<path d="M4144 830 c-28 -11 -31 -16 -38 -74 -9 -63 -11 -66 -47 -66 -24 0
-33 6 -44 33 -8 17 -15 25 -16 17 -5 -53 16 -80 60 -80 43 1 62 24 70 81 4 33
12 56 23 63 22 13 29 5 31 -36 l2 -33 120 -3 c162 -4 165 -3 165 54 l0 45 -97
-3 -97 -3 -8 -32 c-5 -18 -13 -33 -17 -33 -26 0 -41 15 -47 46 -7 36 -19 41
-60 24z m296 -35 c21 -25 1 -35 -70 -35 -69 0 -87 8 -76 35 8 21 129 21 146 0z"/>
<path d="M5115 830 c-32 -12 -47 -36 -43 -67 l3 -28 240 0 240 0 3 53 3 53
-38 -7 c-41 -8 -63 -24 -63 -47 0 -21 -22 -27 -100 -27 -59 0 -71 3 -80 20
-12 22 -6 26 38 32 38 5 30 23 -12 26 -45 4 -59 -6 -60 -45 -1 -24 -5 -28 -31
-28 -27 0 -30 3 -33 38 -3 31 -7 37 -25 36 -12 0 -31 -4 -42 -9z m404 -61
c-20 -13 -29 -11 -36 7 -4 11 1 22 13 31 17 12 20 11 28 -7 7 -16 6 -24 -5
-31z m-371 19 c-2 -13 -11 -24 -21 -26 -22 -4 -35 27 -16 39 25 16 41 10 37
-13z"/>
<path d="M3231 812 c-6 -11 -8 -22 -4 -25 11 -12 -8 -95 -24 -101 -26 -10 -52
3 -59 30 -3 13 -10 21 -15 18 -29 -18 18 -74 62 -74 30 0 54 19 64 50 6 18 15
20 88 20 45 0 88 4 95 9 8 5 12 23 10 47 l-3 39 -102 3 c-92 2 -103 1 -112
-16z m184 -27 c0 -18 -7 -20 -75 -20 -71 0 -75 1 -78 23 -3 22 -2 23 75 20 70
-3 78 -5 78 -23z"/>
<path d="M5765 670 c-3 -5 -1 -10 4 -10 6 0 11 5 11 10 0 6 -2 10 -4 10 -3 0
-8 -4 -11 -10z"/>
<path d="M3620 650 c0 -5 5 -10 11 -10 5 0 7 5 4 10 -3 6 -8 10 -11 10 -2 0
-4 -4 -4 -10z"/>
<path d="M3680 649 c0 -5 5 -7 10 -4 6 3 10 8 10 11 0 2 -4 4 -10 4 -5 0 -10
-5 -10 -11z"/>
<path d="M4437 573 c-4 -3 -7 -11 -7 -17 0 -6 5 -5 12 2 6 6 9 14 7 17 -3 3
-9 2 -12 -2z"/>
<path d="M4041 511 c-39 -39 -16 -101 37 -101 31 0 45 -31 26 -58 -18 -26 -37
-28 -54 -7 -14 17 -30 20 -30 6 0 -19 32 -41 60 -41 75 0 80 116 6 124 -28 3
-46 20 -46 43 0 18 48 27 65 13 9 -7 18 -11 20 -8 9 9 -7 38 -20 38 -7 0 -20
3 -28 6 -9 3 -25 -4 -36 -15z"/>
<path d="M4186 519 c-10 -24 -2 -204 9 -204 6 0 11 32 13 70 3 77 -11 161 -22
134z"/>
<path d="M4430 521 l-45 -6 0 -100 0 -100 53 -3 c31 -2 52 1 52 7 0 6 -15 11
-34 11 -35 0 -52 14 -50 40 1 8 2 21 3 28 0 6 14 12 31 12 38 0 40 18 3 22
-23 2 -29 8 -31 36 -3 31 -2 32 32 32 25 0 36 4 36 15 0 8 -1 14 -2 13 -2 0
-23 -4 -48 -7z"/>
<path d="M3154 474 c-9 -65 1 -135 22 -151 25 -18 58 -16 78 6 20 22 31 104
22 155 -12 64 -26 38 -26 -49 0 -70 -3 -86 -17 -93 -43 -20 -48 -12 -51 86 -3
98 -16 121 -28 46z"/>
<path d="M3320 414 c0 -80 3 -105 13 -102 7 3 13 27 15 61 2 31 6 57 10 57 4
0 16 -21 26 -48 41 -102 56 -92 56 39 0 59 -4 99 -10 99 -6 0 -10 -27 -10 -60
0 -33 -4 -60 -9 -60 -4 0 -20 27 -35 60 -42 93 -56 81 -56 -46z"/>
<path d="M3490 415 c0 -63 4 -105 10 -105 6 0 10 42 10 105 0 63 -4 105 -10
105 -6 0 -10 -42 -10 -105z"/>
<path d="M3554 498 c4 -13 16 -60 28 -105 12 -49 26 -83 34 -83 8 0 21 37 35
98 25 106 25 105 11 110 -5 1 -16 -28 -23 -64 -8 -37 -20 -69 -26 -71 -7 -3
-16 23 -23 66 -9 52 -16 71 -27 71 -11 0 -14 -6 -9 -22z"/>
<path d="M3720 415 l0 -105 50 0 c28 0 50 5 50 10 0 6 -12 10 -27 10 -41 0
-55 13 -51 46 2 25 8 29 36 32 17 2 32 7 32 12 0 5 -15 10 -32 12 -29 3 -33 6
-33 33 0 26 4 30 30 33 54 6 52 22 -3 22 l-52 0 0 -105z"/>
<path d="M3870 415 c0 -63 4 -105 10 -105 6 0 10 18 10 40 0 22 5 40 10 40 9
0 44 -49 54 -75 2 -5 7 -7 11 -3 4 4 2 23 -5 43 -9 27 -9 40 -1 48 15 15 14
90 -1 105 -7 7 -29 12 -50 12 l-38 0 0 -105z m58 79 c29 -8 31 -58 2 -74 -29
-16 -40 -4 -40 41 0 41 2 42 38 33z"/>
<path d="M4250 510 c0 -5 7 -10 15 -10 12 0 15 -17 15 -96 0 -72 3 -95 13 -92
8 3 13 33 15 92 2 78 5 89 22 93 37 10 20 23 -30 23 -27 0 -50 -4 -50 -10z"/>
<path d="M4612 508 c-7 -7 -12 -42 -12 -88 0 -85 14 -110 62 -110 25 0 58 27
58 48 0 17 -20 15 -26 -2 -8 -21 -32 -28 -55 -16 -16 9 -19 22 -19 73 0 36 5
68 12 75 16 16 43 15 58 -3 17 -20 32 -8 20 16 -12 22 -78 27 -98 7z"/>
<path d="M4799 518 c0 -2 -2 -10 -4 -18 -1 -8 -12 -53 -24 -100 -11 -46 -18
-86 -16 -89 3 -2 14 8 26 22 26 34 42 34 68 0 30 -37 35 -24 17 44 -9 32 -20
77 -26 101 -7 25 -17 42 -25 42 -8 0 -15 -1 -16 -2z m33 -103 c2 -21 -2 -30
-14 -33 -14 -3 -18 3 -18 31 0 58 26 60 32 2z"/>
<path d="M4920 415 l0 -105 38 0 c21 0 48 7 60 16 19 13 22 24 22 85 0 96 -8
109 -70 109 l-50 0 0 -105z m88 73 c7 -7 12 -38 12 -70 0 -50 -3 -60 -25 -74
-40 -26 -55 -5 -55 76 0 36 3 70 7 73 11 11 48 8 61 -5z"/>
<path d="M5097 513 c-11 -11 -8 -203 3 -203 6 0 10 42 10 105 0 105 -1 111
-13 98z"/>
<path d="M5251 483 c-6 -21 -18 -62 -26 -92 -8 -30 -15 -61 -15 -68 0 -20 18
-16 25 6 10 31 44 33 71 4 l24 -26 0 25 c0 36 -45 181 -58 186 -6 2 -16 -14
-21 -35z m37 -66 c2 -18 -2 -29 -13 -33 -23 -9 -28 0 -20 36 8 37 29 35 33 -3z"/>
<path d="M5347 514 c-3 -3 6 -30 19 -60 14 -31 24 -74 24 -99 0 -65 17 -55 22
13 2 31 12 72 21 91 9 19 17 41 17 48 0 26 -24 7 -32 -25 -6 -22 -13 -30 -23
-26 -8 4 -15 14 -15 24 0 19 -23 43 -33 34z"/>
<path d="M5490 505 c0 -8 9 -37 20 -65 11 -28 20 -69 20 -90 0 -22 5 -40 10
-40 6 0 10 20 10 45 0 25 9 68 20 97 22 59 24 68 11 68 -5 0 -14 -15 -22 -32
-7 -18 -14 -35 -16 -37 -6 -8 -32 34 -33 52 0 21 -20 23 -20 2z"/>
<path d="M5645 498 c-3 -13 -14 -57 -24 -98 -18 -73 -17 -115 2 -73 15 34 48
37 75 7 13 -15 25 -24 27 -22 2 2 -7 48 -20 101 -14 54 -25 100 -25 102 0 3
-7 5 -15 5 -8 0 -17 -10 -20 -22z m35 -69 c14 -25 6 -49 -14 -49 -21 0 -28 15
-20 45 8 30 20 32 34 4z"/>
<path d="M5770 415 l0 -105 38 0 c21 0 48 7 60 16 19 13 22 24 22 93 0 46 -5
82 -12 89 -7 7 -34 12 -60 12 l-48 0 0 -105z m81 75 c15 -9 19 -22 19 -70 0
-52 -3 -62 -24 -75 -42 -28 -56 -11 -56 69 0 89 11 102 61 76z"/>
</g>
</svg>
